<?xml version="1.0" encoding="UTF-8" standalone="no"?>
<!-- Generator: Adobe Illustrator 19.0.0, SVG Export Plug-In . SVG Version: 6.00 Build 0)  -->

<svg
   xmlns:osb="http://www.openswatchbook.org/uri/2009/osb"
   xmlns:dc="http://purl.org/dc/elements/1.1/"
   xmlns:cc="http://creativecommons.org/ns#"
   xmlns:rdf="http://www.w3.org/1999/02/22-rdf-syntax-ns#"
   xmlns:svg="http://www.w3.org/2000/svg"
   xmlns="http://www.w3.org/2000/svg"
   xmlns:xlink="http://www.w3.org/1999/xlink"
   xmlns:sodipodi="http://sodipodi.sourceforge.net/DTD/sodipodi-0.dtd"
   xmlns:inkscape="http://www.inkscape.org/namespaces/inkscape"
   version="1.1"
   id="Capa_1"
   x="0px"
   y="0px"
   viewBox="0 0 59.982 59.982"
   style="enable-background:new 0 0 59.982 59.982;"
   xml:space="preserve"
   sodipodi:docname="icon.svg"
   inkscape:version="0.92.2 5c3e80d, 2017-08-06"><metadata
     id="metadata57"><rdf:RDF><cc:Work
         rdf:about=""><dc:format>image/svg+xml</dc:format><dc:type
           rdf:resource="http://purl.org/dc/dcmitype/StillImage" /><dc:title /></cc:Work></rdf:RDF></metadata><defs
     id="defs55"><linearGradient
       id="linearGradient856"
       osb:paint="solid"><stop
         style="stop-color:#d65050;stop-opacity:1;"
         offset="0"
         id="stop854" /></linearGradient><linearGradient
       id="linearGradient1224"
       osb:paint="solid"><stop
         style="stop-color:#ffffff;stop-opacity:1;"
         offset="0"
         id="stop1222" /></linearGradient><linearGradient
       id="linearGradient1197"
       osb:paint="solid"><stop
         style="stop-color:#00ac20;stop-opacity:1;"
         offset="0"
         id="stop1195" /></linearGradient><linearGradient
       inkscape:collect="always"
       xlink:href="#linearGradient1224"
       id="linearGradient877"
       gradientUnits="userSpaceOnUse"
       gradientTransform="matrix(1.4806317,0,0,1.4806317,81.893775,59.084692)"
       x1="-46.789307"
       y1="-13.693111"
       x2="-24.617432"
       y2="-13.693111" /><pattern
       patternUnits="userSpaceOnUse"
       width="40.392463"
       height="38.59914"
       patternTransform="translate(-2.5591658,9.6786121)"
       id="pattern1081"><text
         id="text1220"
         y="38.59914"
         x="1.4232721"
         style="font-style:normal;font-weight:normal;font-size:72.87152863px;line-height:125%;font-family:sans-serif;letter-spacing:0px;word-spacing:0px;fill:#ffffff;fill-opacity:1;stroke:#d59600;stroke-width:0;stroke-linecap:butt;stroke-linejoin:miter;stroke-miterlimit:4;stroke-dasharray:none;stroke-opacity:1"
         xml:space="preserve"><tspan
           style="font-style:italic;font-variant:normal;font-weight:normal;font-stretch:normal;font-size:58.29722595px;font-family:'Times New Roman';-inkscape-font-specification:'Times New Roman, Italic';fill:#ffffff;fill-opacity:1;stroke:#d59600;stroke-width:0;stroke-miterlimit:4;stroke-dasharray:none;stroke-opacity:1"
           y="38.59914"
           x="1.4232721"
           id="tspan1218"
           sodipodi:role="line">F</tspan></text>
</pattern><pattern
       patternUnits="userSpaceOnUse"
       width="49.216159"
       height="28.034178"
       patternTransform="translate(7.7381977,17.518732)"
       id="pattern5261"><text
         transform="scale(0.93972412,1.0641421)"
         id="text5259"
         y="25.862383"
         x="-3.3408346"
         style="font-style:normal;font-weight:normal;font-size:34.03994751px;line-height:125%;font-family:sans-serif;letter-spacing:0px;word-spacing:0px;fill:#ffffff;fill-opacity:1;stroke:none;stroke-width:0.8509987px;stroke-linecap:butt;stroke-linejoin:miter;stroke-opacity:1"
         xml:space="preserve"><tspan
           style="stroke-width:0.8509987px"
           y="25.862383"
           x="-3.3408346"
           id="tspan5257"
           sodipodi:role="line">Ref</tspan></text>
</pattern></defs><sodipodi:namedview
     pagecolor="#ffffff"
     bordercolor="#666666"
     borderopacity="1"
     objecttolerance="10"
     gridtolerance="10"
     guidetolerance="10"
     inkscape:pageopacity="0"
     inkscape:pageshadow="2"
     inkscape:window-width="1366"
     inkscape:window-height="683"
     id="namedview53"
     showgrid="false"
     inkscape:zoom="3.9345138"
     inkscape:cx="48.536389"
     inkscape:cy="14.783273"
     inkscape:window-x="0"
     inkscape:window-y="24"
     inkscape:window-maximized="1"
     inkscape:current-layer="flowRoot1560" /><g
     inkscape:groupmode="layer"
     id="layer3"
     inkscape:label="backg" /><g
     inkscape:groupmode="layer"
     id="layer2"
     inkscape:label="F"
     style="display:inline"><g
       aria-label="CV"
       transform="matrix(1.1108929,0,0,1.3612401,-4.9081231,-1.7990301)"
       style="font-style:normal;font-weight:normal;font-size:40px;line-height:125%;font-family:sans-serif;letter-spacing:0px;word-spacing:0px;fill:#000000;fill-opacity:1;stroke:none;stroke-width:1px;stroke-linecap:butt;stroke-linejoin:miter;stroke-opacity:1"
       id="flowRoot1560"><path
         style="stroke-width:0.97813129px"
         d="m 13.976562,1.890625 c -4.1879302,0 -7.4855436,1.3646172 -9.8945308,4.0957031 C 1.6730442,8.7042842 0.46875,12.427417 0.46875,17.154297 c 0,4.713748 1.2042942,8.43493 3.6132812,11.166015 2.4089872,2.717957 5.7066006,4.078126 9.8945308,4.078126 1.630699,-10e-7 3.175067,-0.236297 4.632813,-0.708985 1.470099,-0.472689 2.860421,-1.181577 4.169922,-2.126953 v -4.15625 c -1.260086,1.247371 -2.607978,2.179755 -4.041016,2.796875 -1.420684,0.617121 -2.933071,0.925781 -4.539062,0.925781 -3.162568,0 -5.5835577,-1.023951 -7.2636721,-3.072265 -1.6801134,-2.061446 -2.5214844,-5.02893 -2.5214844,-8.902344 0,-3.886545 0.841371,-6.854029 2.5214844,-8.9023439 1.6801144,-2.0614451 4.1011041,-3.0917969 7.2636721,-3.0917969 1.605991,0 3.118378,0.3086607 4.539062,0.9257813 1.433038,0.6171206 2.78093,1.5475508 4.041016,2.7949219 V 4.6875 C 21.494504,3.7552545 20.116584,3.059167 18.646484,2.5996094 17.188739,2.1269214 15.631969,1.890625 13.976562,1.890625 Z M 26.554688,9.5117188 V 31.699219 h 2.84375 V 9.5117188 Z m 8.792968,0 v 3.3242192 h 2.84375 V 9.5117188 Z M 52.423828,15.34375 c -1.267139,0 -2.358517,0.233414 -3.27539,0.699219 -0.906572,0.456299 -1.6603,1.160705 -2.257813,2.111328 v -2.423828 h -2.857422 v 22.044922 h 2.857422 v -8.470703 c 0.597513,0.950622 1.351241,1.659194 2.257813,2.125 0.916873,0.456298 2.008251,0.683593 3.27539,0.683593 2.101597,0 3.806887,-0.770538 5.115234,-2.310547 1.31865,-1.540008 1.976563,-3.564575 1.976563,-6.074218 0,-2.509644 -0.657913,-4.534211 -1.976563,-6.074219 -1.308347,-1.540009 -3.013637,-2.310547 -5.115234,-2.310547 z m -17.076172,0.386719 v 15.96875 h 2.84375 v -15.96875 z m 16.38086,1.810547 c 1.504084,0 2.684,0.551574 3.539062,1.654296 0.865364,1.093216 1.296875,2.60344 1.296875,4.533204 0,1.929763 -0.431511,3.446106 -1.296875,4.548828 -0.855062,1.093216 -2.034978,1.640625 -3.539062,1.640625 -1.504085,0 -2.689324,-0.547409 -3.554688,-1.640625 -0.855062,-1.102722 -1.283203,-2.619065 -1.283203,-4.548828 0,-1.929764 0.428141,-3.439988 1.283203,-4.533204 0.865364,-1.102722 2.050603,-1.654296 3.554688,-1.654296 z M 0.83789062,38.486328 V 58.896484 H 2.7949219 v -2.203125 c 0.4094173,0.874473 0.9256901,1.526587 1.546875,1.955079 0.6282437,0.419746 1.3758936,0.628906 2.2441406,0.628906 1.4400194,0 2.6093767,-0.708354 3.5058595,-2.125 0.903541,-1.416646 1.355469,-3.279283 1.355469,-5.587891 0,-2.308608 -0.451928,-4.171245 -1.355469,-5.587891 -0.8964828,-1.416645 -2.0658401,-2.125 -3.5058595,-2.125 -0.868247,10e-7 -1.6158969,0.214087 -2.2441406,0.642579 -0.6211849,0.419747 -1.1374577,1.066933 -1.546875,1.941406 v -7.949219 z m 56.73242138,0 v 7.949219 c -0.409417,-0.874473 -0.928396,-1.521659 -1.55664,-1.941406 -0.621185,-0.428492 -1.370788,-0.642578 -2.246094,-0.642579 -1.43296,0 -2.600365,0.708355 -3.503906,2.125 -0.896483,1.416646 -1.345703,3.279283 -1.345703,5.587891 0,2.308608 0.44922,4.171245 1.345703,5.587891 0.903541,1.416646 2.070946,2.125 3.503906,2.125 0.875306,0 1.624909,-0.20916 2.246094,-0.628906 0.628244,-0.428492 1.147223,-1.080606 1.55664,-1.955079 v 2.203125 h 1.947266 V 38.486328 Z m -38.298828,5.365234 c -1.701199,10e-7 -3.034881,0.682698 -4.001953,2.046876 -0.960013,1.364177 -1.441406,3.25247 -1.441406,5.666015 0,2.4048 0.481393,4.293094 1.441406,5.666016 0.967072,1.364177 2.300754,2.046875 4.001953,2.046875 1.694141,0 3.025116,-0.682698 3.992188,-2.046875 0.967072,-1.372922 1.449219,-3.261216 1.449219,-5.666016 0,-2.413545 -0.482147,-4.301838 -1.449219,-5.666015 C 22.2966,44.53426 20.965625,43.851562 19.271484,43.851562 Z m 12.833985,0 c -0.635303,10e-7 -1.288387,0.08682 -1.958985,0.261719 -0.670597,0.16615 -1.363221,0.420675 -2.076172,0.761719 v 2.230469 c 0.59295,-0.402258 1.211155,-0.705122 1.853516,-0.90625 0.642362,-0.201129 1.302813,-0.300781 1.980469,-0.300781 1.065897,-10e-7 1.890672,0.305837 2.476562,0.917968 0.59295,0.603386 0.888672,1.459732 0.888672,2.570313 v 0.236328 h -2.730469 c -1.771788,0 -3.10547,0.420272 -4.001953,1.259765 -0.889423,0.839494 -1.335937,2.085528 -1.335937,3.738282 0,1.416646 0.357362,2.548246 1.070312,3.396484 0.72001,0.839494 1.686257,1.259766 2.900391,1.259766 0.960013,0 1.772009,-0.20916 2.435547,-0.628906 0.663538,-0.428492 1.217397,-1.088507 1.662109,-1.980469 v 2.228515 h 1.949219 v -8.380859 c 0,-2.23865 -0.424414,-3.909883 -1.271484,-5.011719 -0.847071,-1.101835 -2.12648,-1.652344 -3.841797,-1.652344 z m 15.001953,0 c -0.938836,10e-7 -1.736099,0.219014 -2.392578,0.65625 -0.65648,0.428492 -1.188239,1.088507 -1.597656,1.980469 v -2.28125 h -1.958985 v 14.689453 h 1.958985 v -7.738281 c -10e-7,-1.661498 0.293016,-2.933189 0.878906,-3.816406 0.592949,-0.891962 1.439824,-1.337891 2.541015,-1.337891 0.310593,0 0.591582,0.03849 0.845703,0.117188 0.26118,0.06996 0.501877,0.184392 0.720704,0.341797 l -0.0098,-2.480469 c -0.19765,-0.04372 -0.37866,-0.07431 -0.541016,-0.0918 -0.162355,-0.02623 -0.311193,-0.03906 -0.445312,-0.03906 z M 6.109375,45.871094 c 1.0306021,0 1.839891,0.507096 2.4257812,1.521484 0.5929492,1.005644 0.8886719,2.396695 0.8886719,4.171875 0,1.77518 -0.2957227,3.171159 -0.8886719,4.185547 -0.5858902,1.005644 -1.3951791,1.507812 -2.4257812,1.507812 -1.0306021,0 -1.8425977,-0.502168 -2.4355469,-1.507812 -0.5858902,-1.014388 -0.8789062,-2.410367 -0.8789062,-4.185547 0,-1.77518 0.293016,-3.166231 0.8789062,-4.171875 0.5929492,-1.014388 1.4049448,-1.521484 2.4355469,-1.521484 z m 48.134766,0 c 1.030602,0 1.842597,0.507096 2.435547,1.521484 0.592949,1.005644 0.890624,2.396695 0.890624,4.171875 10e-7,1.77518 -0.297675,3.171159 -0.890624,4.185547 -0.59295,1.005644 -1.404945,1.507812 -2.435547,1.507812 -1.030602,0 -1.842598,-0.502168 -2.435547,-1.507812 -0.58589,-1.014388 -0.878906,-2.410367 -0.878906,-4.185547 -10e-7,-1.77518 0.293016,-3.166231 0.878906,-4.171875 0.592949,-1.014388 1.404945,-1.521484 2.435547,-1.521484 z m -34.972657,0.02734 c 1.037661,0 1.85973,0.512023 2.466797,1.535156 0.607067,1.014388 0.910157,2.390658 0.910157,4.130859 0,1.748946 -0.30309,3.130143 -0.910157,4.144531 -0.607067,1.014389 -1.429136,1.521485 -2.466797,1.521485 -1.051778,0 -1.881214,-0.502169 -2.488281,-1.507813 -0.600008,-1.014388 -0.900391,-2.400513 -0.900391,-4.158203 0,-1.75769 0.30309,-3.138887 0.910157,-4.144531 0.607067,-1.014389 1.433795,-1.521484 2.478515,-1.521484 z m 14.060547,5.613281 h 1.9375 v 0.539062 c 0,1.574051 -0.327895,2.837841 -0.984375,3.791016 -0.64942,0.94443 -1.513735,1.416015 -2.59375,1.416015 -0.78354,1e-6 -1.404451,-0.249597 -1.863281,-0.748046 -0.451771,-0.507195 -0.677734,-1.189892 -0.677734,-2.046875 0,-1.075602 0.303089,-1.835269 0.910156,-2.28125 0.607067,-0.445981 1.697345,-0.669922 3.271484,-0.669922 z"
         transform="matrix(0.90017679,0,0,0.73462426,4.4181785,1.3216112)"
         id="path848"
         inkscape:connector-curvature="0" /></g></g><g
     id="g22" /><g
     id="g24" /><g
     id="g26" /><g
     id="g28" /><g
     id="g30" /><g
     id="g32" /><g
     id="g34" /><g
     id="g36" /><g
     id="g38" /><g
     id="g40" /><g
     id="g42" /><g
     id="g44" /><g
     id="g46" /><g
     id="g48" /><g
     id="g50" /><g
     inkscape:groupmode="layer"
     id="layer1"
     inkscape:label="white"
     style="display:inline" /></svg>